PathFileType	4	(X/Y/Z)	test111.trc
DataRate	CameraRate	NumFrames	NumMarkers	Units	OrigDataRate	OrigDataStartFrame	OrigNumFrames
120	120	12	27	m	120	379	1010
Frame#	Time	RHip			RKnee			RAnkle			RBigToe			RSmallToe			RHeel			LHip			LKnee			LAnkle			LBigToe			LSmallToe			LHeel			Nose			REye			LEye			RShoulder			RElbow			RWrist			RThumb			RIndex			RPinky			LShoulder			LElbow			LWrist			LThumb			LIndex			LPinky		
		X	Y	Z	X	Y	Z	X	Y	Z	X	Y	Z	X	Y	Z	X	Y	Z	X	Y	Z	X	Y	Z	X	Y	Z	X	Y	Z	X	Y	Z	X	Y	Z	X	Y	Z	X	Y	Z	X	Y	Z	X	Y	Z	X	Y	Z	X	Y	Z	X	Y	Z	X	Y	Z	X	Y	Z	X	Y	Z	X	Y	Z	X	Y	Z	X	Y	Z	X	Y	Z	X	Y	Z
379	3.158333333333333	0.034	0.191	0.918	0.0	0.217	0.484	-0.037	0.258	0.086	-0.052	0.052	0.015	-0.087	0.099	0.02	-0.036	0.297	0.02	0.258	0.191	0.916	0.274	0.212	0.483	0.301	0.276	0.079	0.325	0.063	0.012	0.347	0.113	0.016	0.296	0.318	0.015	0.147	0.114	1.62	0.107	0.132	1.648	0.189	0.147	1.65	-0.019	0.226	1.486	-0.023	0.183	1.763	0.007	0.162	1.999	0.074	0.152	2.055	0.043	0.148	2.093	-0.016	0.17	2.089	0.303	0.246	1.482	0.315	0.214	1.76	0.275	0.168	1.999	0.208	0.139	2.047	0.236	0.136	2.077	0.284	0.169	2.078
380	3.1666666666666665	0.034	0.191	0.918	0.0	0.217	0.484	-0.037	0.258	0.086	-0.052	0.052	0.015	-0.087	0.099	0.02	-0.036	0.297	0.02	0.258	0.191	0.916	0.274	0.212	0.483	0.301	0.276	0.079	0.325	0.063	0.012	0.347	0.113	0.016	0.296	0.318	0.015	0.148	0.115	1.62	0.107	0.132	1.648	0.19	0.147	1.65	-0.019	0.226	1.486	-0.022	0.183	1.763	0.008	0.162	1.999	0.076	0.152	2.055	0.045	0.148	2.093	-0.014	0.17	2.09	0.303	0.246	1.481	0.314	0.214	1.76	0.272	0.167	1.999	0.205	0.139	2.046	0.234	0.135	2.077	0.282	0.169	2.077
381	3.175	0.034	0.191	0.918	0.0	0.217	0.484	-0.037	0.258	0.086	-0.052	0.051	0.015	-0.087	0.099	0.019	-0.036	0.297	0.02	0.258	0.192	0.916	0.274	0.212	0.483	0.301	0.276	0.079	0.325	0.064	0.012	0.347	0.113	0.016	0.296	0.318	0.015	0.148	0.115	1.62	0.108	0.133	1.648	0.19	0.148	1.65	-0.019	0.226	1.486	-0.021	0.183	1.762	0.01	0.161	1.999	0.078	0.151	2.055	0.046	0.147	2.093	-0.012	0.17	2.09	0.303	0.246	1.481	0.314	0.214	1.76	0.27	0.167	1.998	0.203	0.138	2.046	0.231	0.134	2.076	0.279	0.168	2.076
382	3.183333333333333	0.034	0.191	0.918	0.0	0.217	0.484	-0.037	0.258	0.086	-0.053	0.051	0.014	-0.087	0.099	0.019	-0.036	0.297	0.019	0.257	0.192	0.916	0.274	0.212	0.483	0.3	0.276	0.079	0.325	0.064	0.012	0.347	0.114	0.017	0.295	0.318	0.015	0.148	0.116	1.62	0.108	0.133	1.648	0.19	0.148	1.65	-0.019	0.226	1.486	-0.021	0.183	1.762	0.011	0.161	2.0	0.079	0.151	2.054	0.048	0.147	2.093	-0.009	0.17	2.09	0.303	0.246	1.481	0.313	0.214	1.76	0.268	0.167	1.998	0.2	0.137	2.045	0.228	0.133	2.075	0.277	0.167	2.075
383	3.191666666666667	0.034	0.191	0.918	0.0	0.217	0.484	-0.037	0.258	0.085	-0.053	0.051	0.015	-0.088	0.099	0.019	-0.036	0.297	0.019	0.257	0.192	0.916	0.274	0.212	0.484	0.3	0.276	0.079	0.325	0.065	0.012	0.347	0.115	0.017	0.295	0.318	0.015	0.147	0.116	1.62	0.108	0.133	1.648	0.191	0.149	1.65	-0.019	0.226	1.486	-0.02	0.183	1.762	0.013	0.161	2.0	0.081	0.15	2.054	0.05	0.147	2.093	-0.007	0.17	2.09	0.303	0.246	1.481	0.312	0.214	1.76	0.266	0.166	1.997	0.197	0.137	2.044	0.225	0.132	2.074	0.275	0.166	2.075
384	3.2	0.033	0.191	0.917	0.0	0.217	0.484	-0.037	0.258	0.085	-0.053	0.051	0.015	-0.088	0.099	0.019	-0.036	0.297	0.019	0.257	0.192	0.916	0.274	0.212	0.484	0.3	0.276	0.079	0.325	0.066	0.012	0.347	0.115	0.017	0.295	0.318	0.015	0.147	0.116	1.62	0.108	0.133	1.648	0.191	0.149	1.65	-0.018	0.226	1.485	-0.019	0.183	1.762	0.015	0.161	2.0	0.082	0.15	2.054	0.051	0.146	2.093	-0.004	0.17	2.091	0.302	0.246	1.481	0.311	0.214	1.759	0.264	0.166	1.997	0.194	0.136	2.044	0.222	0.131	2.073	0.272	0.166	2.074
385	3.2083333333333335	0.033	0.191	0.917	0.0	0.217	0.484	-0.037	0.258	0.085	-0.053	0.051	0.014	-0.088	0.099	0.019	-0.036	0.296	0.019	0.257	0.192	0.916	0.274	0.212	0.484	0.3	0.276	0.079	0.325	0.066	0.012	0.347	0.116	0.017	0.295	0.318	0.015	0.147	0.117	1.62	0.109	0.134	1.648	0.191	0.149	1.65	-0.018	0.227	1.485	-0.018	0.183	1.762	0.016	0.16	2.0	0.084	0.149	2.054	0.053	0.146	2.093	-0.002	0.17	2.091	0.302	0.246	1.481	0.31	0.214	1.759	0.262	0.165	1.996	0.192	0.136	2.043	0.219	0.131	2.072	0.27	0.165	2.073
386	3.216666666666667	0.033	0.191	0.916	0.0	0.217	0.484	-0.037	0.257	0.085	-0.053	0.051	0.014	-0.088	0.098	0.019	-0.036	0.296	0.019	0.257	0.192	0.915	0.274	0.212	0.483	0.3	0.276	0.079	0.325	0.067	0.012	0.347	0.116	0.017	0.296	0.319	0.015	0.147	0.117	1.62	0.109	0.134	1.648	0.191	0.15	1.65	-0.018	0.227	1.485	-0.017	0.183	1.762	0.018	0.16	2.0	0.085	0.149	2.054	0.055	0.145	2.092	0.0	0.17	2.091	0.302	0.246	1.481	0.31	0.213	1.759	0.259	0.165	1.996	0.189	0.135	2.042	0.216	0.13	2.071	0.268	0.164	2.072
387	3.225	0.033	0.191	0.916	0.0	0.217	0.484	-0.037	0.257	0.085	-0.053	0.05	0.014	-0.088	0.098	0.019	-0.036	0.296	0.019	0.257	0.193	0.915	0.274	0.213	0.483	0.3	0.277	0.079	0.325	0.067	0.012	0.347	0.116	0.017	0.296	0.319	0.015	0.147	0.117	1.62	0.109	0.134	1.648	0.191	0.15	1.65	-0.018	0.227	1.485	-0.016	0.182	1.762	0.02	0.16	1.999	0.086	0.148	2.053	0.057	0.145	2.092	0.003	0.17	2.091	0.301	0.247	1.481	0.309	0.213	1.759	0.257	0.164	1.996	0.186	0.135	2.041	0.213	0.13	2.071	0.265	0.163	2.072
388	3.2333333333333334	0.033	0.192	0.916	0.0	0.217	0.484	-0.037	0.257	0.085	-0.052	0.05	0.014	-0.088	0.098	0.019	-0.036	0.296	0.019	0.257	0.193	0.915	0.274	0.213	0.483	0.3	0.277	0.079	0.324	0.068	0.013	0.347	0.117	0.017	0.296	0.319	0.015	0.148	0.118	1.619	0.11	0.134	1.648	0.191	0.15	1.65	-0.018	0.227	1.485	-0.015	0.182	1.762	0.022	0.159	1.999	0.087	0.147	2.053	0.059	0.145	2.092	0.007	0.17	2.091	0.301	0.247	1.481	0.308	0.212	1.759	0.256	0.164	1.995	0.184	0.135	2.04	0.21	0.129	2.07	0.263	0.163	2.071
389	3.2416666666666667	0.033	0.192	0.916	0.0	0.217	0.484	-0.037	0.257	0.085	-0.052	0.05	0.014	-0.087	0.098	0.019	-0.036	0.296	0.019	0.257	0.193	0.915	0.274	0.213	0.483	0.3	0.277	0.079	0.324	0.068	0.013	0.346	0.117	0.017	0.296	0.319	0.016	0.148	0.118	1.619	0.11	0.134	1.648	0.192	0.15	1.649	-0.018	0.228	1.485	-0.014	0.182	1.762	0.024	0.159	1.999	0.089	0.147	2.052	0.061	0.144	2.091	0.01	0.17	2.092	0.301	0.247	1.481	0.308	0.212	1.758	0.254	0.163	1.995	0.182	0.135	2.04	0.208	0.129	2.069	0.26	0.162	2.071
390	3.25	0.033	0.192	0.916	0.0	0.217	0.484	-0.037	0.257	0.085	-0.052	0.05	0.014	-0.087	0.098	0.019	-0.036	0.296	0.019	0.257	0.193	0.915	0.274	0.213	0.483	0.301	0.277	0.079	0.324	0.069	0.013	0.346	0.117	0.017	0.296	0.32	0.016	0.148	0.118	1.619	0.111	0.135	1.648	0.192	0.15	1.649	-0.019	0.228	1.485	-0.013	0.181	1.762	0.025	0.159	1.999	0.09	0.146	2.052	0.063	0.144	2.091	0.013	0.17	2.092	0.301	0.247	1.481	0.307	0.212	1.758	0.252	0.163	1.995	0.18	0.135	2.039	0.205	0.129	2.068	0.258	0.162	2.071
